<svg width="1200" height="630" viewBox="0 0 1200 630" xmlns="http://www.w3.org/2000/svg">
  <!-- Background Gradient -->
  <defs>
    <linearGradient id="bgGradient" x1="0%" y1="0%" x2="100%" y2="100%">
      <stop offset="0%" style="stop-color:#F7F3E9;stop-opacity:1" />
      <stop offset="100%" style="stop-color:#F0EAD6;stop-opacity:1" />
    </linearGradient>
    <linearGradient id="textGradient" x1="0%" y1="0%" x2="100%" y2="0%">
      <stop offset="0%" style="stop-color:#4A90E2;stop-opacity:1" />
      <stop offset="100%" style="stop-color:#FF6B35;stop-opacity:1" />
    </linearGradient>
  </defs>
  
  <!-- Background -->
  <rect width="1200" height="630" fill="url(#bgGradient)"/>
  
  <!-- Decorative Elements -->
  <circle cx="100" cy="100" r="60" fill="#4A90E2" opacity="0.1"/>
  <circle cx="1100" cy="530" r="80" fill="#FF6B35" opacity="0.1"/>
  <rect x="950" y="50" width="200" height="200" rx="20" fill="#4A90E2" opacity="0.05" transform="rotate(15 1050 150)"/>
  
  <!-- Main Content -->
  <!-- Brand Name -->
  <text x="600" y="220" text-anchor="middle" font-family="Arial, sans-serif" font-size="72" font-weight="bold" fill="url(#textGradient)">
    JPlus
  </text>
  
  <!-- Tagline -->
  <text x="600" y="290" text-anchor="middle" font-family="Arial, sans-serif" font-size="36" fill="#2D3748">
    Jerseys and others
  </text>
  
  <!-- Features -->
  <text x="600" y="360" text-anchor="middle" font-family="Arial, sans-serif" font-size="24" fill="#4A5568">
    High-Quality Products • Custom Printing • Fast Delivery
  </text>
  
  <!-- Call to Action -->
  <rect x="450" y="420" width="300" height="60" rx="30" fill="#4A90E2"/>
  <text x="600" y="460" text-anchor="middle" font-family="Arial, sans-serif" font-size="24" font-weight="bold" fill="white">
    Shop Now
  </text>
  
  <!-- Website URL -->
  <text x="600" y="550" text-anchor="middle" font-family="Arial, sans-serif" font-size="20" fill="#718096">
    jstore.vercel.app
  </text>
  
  <!-- Sports Icons (Simple) -->
  <circle cx="200" cy="315" r="25" fill="none" stroke="#4A90E2" stroke-width="3"/>
  <polygon points="190,325 200,305 210,325" fill="#4A90E2"/>
  <polygon points="185,315 200,300 215,315" fill="none" stroke="#4A90E2" stroke-width="2"/>
  
  <circle cx="1000" cy="315" r="25" fill="none" stroke="#FF6B35" stroke-width="3"/>
  <polygon points="990,325 1000,305 1010,325" fill="#FF6B35"/>
  <polygon points="985,315 1000,300 1015,315" fill="none" stroke="#FF6B35" stroke-width="2"/>
</svg>
